name C:\Users\u0101727\Documents\MyRepositories\upper-imu-dc\Results\main_tracking\Case_18\kinematics.mot
datacolumns 10
datarows 47
range 0.70000000 1.16000000
endheader 
time	clav_prot	clav_elev	scapula_abduction	scapula_elevation	scapula_upward_rot	scapula_winging	plane_elv	shoulder_elv	axial_rot	
          0.70000000	        -21.28164971	         10.81349408	        -11.57795271	          5.63070378	         20.11189869	          1.76254584	         20.06696602	          8.54555184	         -9.89940803	
          0.71000000	        -21.49537502	         10.74700286	        -11.72920181	          5.49731333	         20.40194551	          1.65270039	         20.95368422	          8.67160616	        -11.42921671	
          0.72000000	        -21.67233219	         10.71212187	        -11.84005706	          5.38850105	         20.67479321	          1.55107039	         21.89134215	          8.83057074	        -12.90341180	
          0.73000000	        -21.68388340	         10.66834671	        -11.65311108	          5.28740191	         20.93201061	          1.45497204	         22.93005912	          9.02051138	        -14.29476265	
          0.74000000	        -21.70002714	         10.62834210	        -11.48792071	          5.19355673	         21.17289087	          1.36558128	         24.06398787	          9.24132207	        -15.58530192	
          0.75000000	        -21.74995242	         10.59501751	        -11.40010753	          5.10750194	         21.39675742	          1.28313910	         25.28452917	          9.49321335	        -16.77557240	
          0.76000000	        -21.83886462	         10.56810944	        -11.40181227	          5.02961385	         21.59976954	          1.20863077	         26.59113559	          9.78078733	        -17.87038846	
          0.77000000	        -21.84580987	         10.53466653	        -11.26661389	          4.95802959	         21.77922984	          1.14267552	         27.99198444	         10.10899308	        -18.88264254	
          0.78000000	        -21.85215294	         10.50206692	        -11.14884271	          4.89375270	         21.93349270	          1.08584085	         29.47896585	         10.48045461	        -19.81779050	
          0.79000000	        -21.84040238	         10.47073924	        -11.01571265	          4.83769821	         22.06407653	          1.03772153	         31.03967409	         10.89456228	        -20.68068148	
          0.80000000	        -21.83653148	         10.44462228	        -10.91351544	          4.79000980	         22.17568396	          0.99674468	         32.65973077	         11.34746642	        -21.47281896	
          0.81000000	        -21.82376216	         10.42382734	        -10.80717790	          4.75018749	         22.27443786	          0.96088955	         34.32343059	         11.83405831	        -22.19688728	
          0.82000000	        -21.81380509	         10.41006600	        -10.71388323	          4.71699634	         22.36742998	          0.92772537	         36.01290575	         12.34807753	        -22.85499269	
          0.83000000	        -21.80548652	         10.40290488	        -10.62674714	          4.68861641	         22.46082355	          0.89507629	         37.70892102	         12.88409102	        -23.45040164	
          0.84000000	        -21.80044723	         10.40102257	        -10.54433059	          4.66267566	         22.55971240	          0.86105082	         39.39052204	         13.43741311	        -23.98582377	
          0.85000000	        -21.79894949	         10.40210198	        -10.46385802	          4.63674191	         22.66683009	          0.82450339	         41.03710848	         14.00554734	        -24.46425900	
          0.86000000	        -21.80056195	         10.40354294	        -10.38209053	          4.60854977	         22.78359791	          0.78472985	         42.62933474	         14.58707491	        -24.88761881	
          0.87000000	        -21.80422782	         10.40305245	        -10.29633240	          4.57662742	         22.90935734	          0.74177918	         44.15166457	         15.18276152	        -25.25764328	
          0.88000000	        -21.80868915	         10.39932381	        -10.20390116	          4.54020672	         23.04365183	          0.69572813	         45.59311340	         15.79330682	        -25.57715751	
          0.89000000	        -21.81275521	         10.39217721	        -10.10391085	          4.49972135	         23.18456834	          0.64725075	         46.94850580	         16.42145048	        -25.85308458	
          0.90000000	        -21.81555007	         10.38263786	         -9.99585598	          4.45620211	         23.33133329	          0.59673113	         48.21683192	         17.06915330	        -26.09850348	
          0.91000000	        -21.81658186	         10.37244358	         -9.88107781	          4.41144193	         23.48212980	          0.54495306	         49.40017153	         17.73994018	        -26.33545157	
          0.92000000	        -21.81574278	         10.36374821	         -9.75949148	          4.36673707	         23.63831164	          0.49164664	         50.50154365	         18.43405404	        -26.59603232	
          0.93000000	        -21.81343846	         10.35844936	         -9.63316167	          4.32361093	         23.79939428	          0.43712681	         51.52444722	         19.15371962	        -26.92152263	
          0.94000000	        -21.80996724	         10.35793391	         -9.50354585	          4.28316242	         23.96507784	          0.38159598	         52.47162034	         19.90053347	        -27.35884627	
          0.95000000	        -21.80574270	         10.36303007	         -9.37186612	          4.24601442	         24.13526571	          0.32513895	         53.34485643	         20.67509990	        -27.95559470	
          0.96000000	        -21.80116501	         10.37388807	         -9.23991013	          4.21258806	         24.30859683	          0.26820945	         54.14528535	         21.47827300	        -28.75252185	
          0.97000000	        -21.79639017	         10.39018612	         -9.10817139	          4.18276573	         24.48452940	          0.21095364	         54.87426428	         22.30865326	        -29.77560746	
          0.98000000	        -21.79123402	         10.41152734	         -8.97697506	          4.15654784	         24.66187204	          0.15373122	         55.53455903	         23.16416954	        -31.02765413	
          0.99000000	        -21.78507553	         10.43808609	         -8.84462087	          4.13389758	         24.84147022	          0.09627167	         56.13198446	         24.03949318	        -32.48313371	
          1.00000000	        -21.77703954	         10.47101824	         -8.70888945	          4.11535191	         25.02490385	          0.03813770	         56.67650551	         24.92807190	        -34.08662264	
          1.01000000	        -21.76662431	         10.51251839	         -8.56646856	          4.10148423	         25.21679589	         -0.02203137	         57.18259750	         25.82039753	        -35.75752638	
          1.02000000	        -21.75394470	         10.56463148	         -8.41441734	          4.09253665	         25.42261688	         -0.08587099	         57.66932777	         26.70748128	        -37.40146241	
          1.03000000	        -21.73907725	         10.62902386	         -8.24777890	          4.08797133	         25.65007534	         -0.15575112	         58.15832316	         27.57972977	        -38.92405886	
          1.04000000	        -21.72248341	         10.70680641	         -8.06300593	          4.08717945	         25.90547276	         -0.23358614	         58.66875350	         28.43035326	        -40.24342512	
          1.05000000	        -21.70506355	         10.79785292	         -7.85679767	          4.08869791	         26.19489784	         -0.32127190	         59.21512068	         29.25365125	        -41.30117705	
          1.06000000	        -21.68802418	         10.90034064	         -7.62830454	          4.09069317	         26.52071610	         -0.41957678	         59.80453042	         30.04806911	        -42.06878068	
          1.07000000	        -21.67238000	         11.01078278	         -7.37606837	          4.09034835	         26.88443237	         -0.52908196	         60.43641486	         30.81263343	        -42.55168420	
          1.08000000	        -21.65824671	         11.12512321	         -7.09970673	          4.08541652	         27.28358690	         -0.64910697	         61.10136591	         31.54953349	        -42.78555714	
          1.09000000	        -21.64535220	         11.24036987	         -6.80046184	          4.07498300	         27.71344131	         -0.77815733	         61.77961401	         32.26122226	        -42.82874203	
          1.10000000	        -21.63396944	         11.35383089	         -6.48129766	          4.05845039	         28.16862419	         -0.91452663	         62.44945578	         32.94992444	        -42.75483805	
          1.11000000	        -21.62430034	         11.46280654	         -6.14449719	          4.03501724	         28.64457697	         -1.05678352	         63.09224801	         33.61669170	        -42.64026934	
          1.12000000	        -21.61650067	         11.56467033	         -5.78976059	          4.00320363	         29.14005321	         -1.20453985	         63.69595377	         34.25904890	        -42.55114053	
          1.13000000	        -21.61085127	         11.65676436	         -5.41399160	          3.96069766	         29.65763678	         -1.35857324	         64.25671998	         34.87057064	        -42.53293167	
          1.14000000	        -21.60800537	         11.73597776	         -5.01104660	          3.90398316	         30.20426846	         -1.52094755	         64.77832102	         35.44022117	        -42.60532297	
          1.15000000	        -21.60878447	         11.79825091	         -4.57320759	          3.82862680	         30.78855624	         -1.69412302	         65.26964711	         35.95507747	        -42.76377497	
          1.16000000	        -21.61328846	         11.83967695	         -4.09184568	          3.73062694	         31.41861535	         -1.88013568	         65.74047305	         36.40259062	        -42.98546956	
